<?xml version="1.0" encoding="UTF-8"?>
<svg width="42px" height="42px" viewBox="0 0 42 42" version="1.1" xmlns="http://www.w3.org/2000/svg" xmlns:xlink="http://www.w3.org/1999/xlink">
    <!-- Generator: Sketch 41.2 (35397) - http://www.bohemiancoding.com/sketch -->
    <title>Combined Shape</title>
    <desc>Created with Sketch.</desc>
    <defs></defs>
    <g id="Page-1" stroke="none" stroke-width="1" fill="none" fill-rule="evenodd">
        <g id="Artboard" fill="#FFFFFF">
            <path d="M21,42 C32.5979797,42 42,32.5979797 42,21 C42,9.40202025 32.5979797,0 21,0 C9.40202025,0 0,9.40202025 0,21 C0,32.5979797 9.40202025,42 21,42 Z M15.3821395,26.1912058 L14.8918862,26.1912058 C13.2832281,26.1912058 10.352861,25.5957108 10.352861,25.5957108 C10.3257644,25.5866272 10.2974856,25.581802 10.2689836,25.5813988 C10.1090113,25.5818593 9.97967393,25.7153333 9.98005941,25.8795638 L9.98005941,27.72926 C9.98019138,27.8630037 10.0673569,27.9801698 10.1930059,28.0154983 L10.2144981,28.0214616 C11.7467337,28.3963131 13.3169898,28.5825654 14.8921185,28.576287 L15.3821395,28.576287 C15.458972,28.5760975 15.5325826,28.5445734 15.5867698,28.4886531 C15.640957,28.4327328 15.6712796,28.3569996 15.6710636,28.278122 L15.6710636,26.4891323 C15.6713848,26.3249677 15.5420475,26.1916006 15.3821395,26.1912058 Z M26.0186608,20.2279066 C25.9219687,20.2280202 25.8317634,20.2778611 25.7784134,20.3606496 C25.5486791,20.7426634 25.2797743,21.0987437 24.974491,21.4204471 C25.2767394,21.7393965 25.5429524,22.0923524 25.768074,22.4726117 C25.8214121,22.5600194 25.9144899,22.6142865 26.0150594,22.6146575 C26.0177314,22.6146575 27.8920789,22.6138226 27.8920789,22.6138226 C28.8544939,22.6138226 29.6346854,23.4147806 29.6346854,24.4028124 C29.6346854,25.3908441 28.8544939,26.1918022 27.8920789,26.1918022 L19.4276584,26.1918022 C19.2676861,26.1922626 19.1383488,26.3257366 19.1387343,26.4899671 L19.1387343,28.2789569 C19.1383488,28.4431874 19.2676861,28.5766614 19.4276584,28.5771219 L27.8920789,28.5771219 C30.1379063,28.5771548 31.9585352,26.7081193 31.9585673,24.4025142 C31.9585993,22.0969091 30.1380225,20.2278202 27.8921951,20.2277873 L26.0186608,20.2279066 Z M23.730967,25.3186559 C23.7412565,25.4737077 23.8664197,25.5942918 24.0178,25.5949952 L25.7535523,25.5949952 C25.8303848,25.5948056 25.9039954,25.5632816 25.9581826,25.5073613 C26.0123698,25.451441 26.0426924,25.3757077 26.0424764,25.2968302 C25.9592743,23.784218 25.2599181,22.3773653 24.1156184,21.4206857 C25.2517824,20.4748379 25.9502075,19.0837583 26.0414308,17.5849723 C26.0428085,17.4792599 26.012486,17.4035267 25.9582988,17.3476064 C25.9041116,17.2916861 25.830501,17.260162 25.7536684,17.2599725 L24.0157089,17.2599725 C23.8654152,17.2606339 23.7407795,17.3796106 23.7292244,17.5334494 C23.5865962,19.0570657 22.3430511,20.2226418 20.8522973,20.2281451 L18.5604213,20.2281451 L18.5604213,13.5688095 C18.5606045,12.6717501 18.5066741,11.7755399 18.3989398,10.8853249 L20.8524135,10.8853249 C22.2809522,10.8904914 23.4926544,11.9637823 23.7069191,13.4137638 C23.7278647,13.5594185 23.8490594,13.6678421 23.992358,13.6683966 L25.7387982,13.6683966 C25.8156308,13.6682071 25.8892414,13.636683 25.9434286,13.5807628 C25.9976157,13.5248425 26.0279383,13.4491092 26.0277223,13.3702317 C25.7511142,10.5929247 23.5320276,8.52024172 20.8716983,8.50000517 L15.9473248,8.50000517 C15.8553596,8.49944669 15.7687104,8.5441937 15.7143246,8.62033022 C15.6599387,8.69646675 15.6444123,8.79475866 15.6725739,8.88463797 C15.6725739,8.88463797 16.2491443,11.9091041 16.2491443,13.5688095 L16.2491443,20.2274295 L14.024649,20.2274295 C13.0622341,20.2274295 12.2820426,19.4264715 12.2820426,18.4384397 C12.2820426,17.450408 13.0622341,16.64945 14.024649,16.6494499 L15.3821395,16.6494499 C15.458972,16.6492604 15.5325826,16.6177363 15.5867698,16.5618161 C15.640957,16.5058958 15.6712796,16.4301625 15.6710636,16.351285 L15.6710636,14.5622952 C15.6712796,14.4834176 15.640957,14.4076844 15.5867698,14.3517641 C15.5325826,14.2958438 15.458972,14.2643198 15.3821395,14.2641302 L14.024649,14.2641302 C11.7790141,14.2641302 9.95856727,16.1330322 9.95856727,18.4384397 C9.95856727,20.7438472 11.7790141,22.6127492 14.024649,22.6127492 L16.2491443,22.6127492 L16.2491443,34.201825 C16.2489283,34.2807025 16.2792509,34.3564358 16.333438,34.4123561 C16.3876252,34.4682763 16.4612358,34.4998004 16.5380684,34.4999899 L18.2714971,34.4999899 C18.3483297,34.4998004 18.4219403,34.4682763 18.4761275,34.4123561 C18.5303147,34.3564358 18.5606373,34.2807025 18.5604213,34.201825 L18.5604213,22.6132263 L20.8524135,22.6132263 C22.3475881,22.6184616 23.5940706,23.7898828 23.730967,25.3186559 Z M27.0250741,14.2643688 L19.4266129,14.2643688 C19.3498005,14.2645899 19.2762197,14.2961279 19.2220576,14.3520447 C19.1678956,14.4079616 19.1375889,14.4836768 19.1378049,14.5625337 L19.1378049,16.3515235 C19.1375889,16.4303804 19.1678956,16.5060957 19.2220576,16.5620125 C19.2762197,16.6179293 19.3498005,16.6494674 19.4266129,16.6496885 L27.0250741,16.6496885 C28.6337322,16.6496885 31.5640993,17.2451835 31.5640993,17.2451835 C31.5912377,17.2542594 31.6195536,17.2590843 31.6480929,17.2594955 C31.8080652,17.259035 31.9374025,17.125561 31.937017,16.9613305 L31.937017,15.1117536 C31.9369354,14.9779013 31.8497091,14.8606197 31.7239543,14.8252767 C30.1704556,14.4442558 28.6001986,14.2580433 27.0250741,14.2643688 Z M25.7640079,29.1728555 L24.030463,29.1728555 C23.8724595,29.1732981 23.7440335,29.303815 23.7420035,29.4660112 C23.7382232,31.079511 23.9185136,32.6879141 24.279191,34.2583571 C24.2813983,34.2704029 24.2830247,34.2761277 24.283838,34.2804213 C24.31861,34.4094985 24.4322782,34.4994621 24.5624227,34.4999899 L26.3547515,34.4999899 C26.446816,34.5007701 26.5336405,34.4560968 26.5881309,34.3799107 C26.6426212,34.3037245 26.6581424,34.2053022 26.629851,34.1153571 C26.629851,34.1153571 26.0621098,31.1390745 26.0531644,29.4710204 C26.0533175,29.3067899 25.9239802,29.1733159 25.7640079,29.1728555 Z" id="Combined-Shape"></path>
        </g>
    </g>
</svg>